<svg width="237" height="48" viewBox="0 0 237 48" fill="none" xmlns="http://www.w3.org/2000/svg">
<path d="M48.3542 37.7243C49.4742 37.4603 50.497 36.8587 51.6429 36.9517C53.537 37.2439 54.4343 36.8738 55.8808 35.9367C56.9424 36.5448 58.2029 37.813 60.7932 37.7849C61.6257 37.839 62.5922 37.4278 62.3976 36.547C62.3457 35.7831 63.8419 36.1142 63.937 35.1403C64.1035 34.5582 63.9803 34.582 63.0722 34.0344C61.5586 33.2056 61.5846 31.6214 60.4451 30.5956C60.3197 30.4463 59.95 30.1779 59.9392 29.9896C56.1402 19.6991 60.6181 23.2115 51.991 13.5009C49.5369 11.6787 45.9499 7.48889 42.7629 7.73777C39.8699 7.83083 39.1369 9.46909 37.005 10.1638C34.3152 11.1182 32.7022 11.3909 30.5379 13.41C29.1368 14.5873 27.2752 13.133 25.2838 15.2301C21.0654 19.487 20.5919 15.4854 13.6665 20.8958C10.0859 24.0079 5.13883 21.7615 9.12588 17.76C11.1475 16.3165 13.7075 14.5397 12.7627 11.7826C12.4427 9.71797 9.47832 9.14664 7.6102 8.85015C6.52911 8.63373 4.68261 7.21188 4.07288 6.82666C2.24368 8.88044 3.15828 13.6264 7.09992 14.109C7.26297 14.1186 7.39304 14.2488 7.40263 14.412C7.41776 14.5544 7.38257 14.6976 7.30317 14.8167C4.4772 17.0436 3.86963 17.9526 3.77017 20.4825C3.55396 23.9451 6.40587 26.5681 10.0405 26.4491C10.6188 26.4587 11.197 26.4247 11.7702 26.3473C11.8697 26.3473 11.9713 26.3473 11.9713 26.4491C12.2567 28.0137 12.3778 29.9269 12.8816 30.496C12.981 30.6973 12.981 30.9007 12.78 31.0003C11.6232 32.1386 9.15831 30.8553 8.53561 32.9221C8.14858 33.7661 8.24155 34.8157 7.32479 35.2485C6.67614 35.1057 6.50316 34.1448 5.60586 34.1361C4.70856 34.1275 3.22747 34.7984 2.57881 36.2613C1.88692 36.7353 1.18637 36.4128 0.862047 37.4733C0.715019 37.4625 0.635018 38.0338 0.660964 38.2827C0.632907 38.7473 0.494278 39.1984 0.256637 39.5985C-0.409313 40.4403 0.312854 41.4705 1.368 41.622C2.14854 41.6826 2.64152 41.9899 2.88152 41.7215C2.98098 41.7215 2.98098 41.622 3.0826 41.622C3.29882 41.4164 3.46531 41.5657 3.68801 41.622C4.13774 41.6458 4.79072 41.9964 5.30532 41.9249C5.4164 41.9112 5.5277 41.9486 5.60802 42.0267C7.12155 42.0137 7.60155 41.4099 8.13344 40.6091C8.10534 40.2499 8.3929 40.0032 8.53777 39.7002C8.67615 39.5552 8.77561 39.4838 8.9421 39.4968C9.20372 39.5725 9.80697 39.6612 9.954 39.7002C12.2675 39.9036 12.8729 37.536 14.7108 37.272C15.1648 37.272 16.0081 37.3607 17.8416 37.575C19.0438 37.6702 20.22 36.7959 21.3789 36.1596C21.8979 35.8999 22.3497 35.7549 22.793 35.1468C23.3379 34.714 23.993 32.0434 24.713 32.0131C26.1898 31.9828 27.5865 31.498 29.0568 31.5067C30.8622 31.4266 32.6979 31.9287 34.3109 31.3054C34.3714 31.3271 34.726 31.2513 34.8169 31.405C35.046 31.7448 35.6925 31.8962 35.5239 32.3161C35.5239 32.4178 35.3206 32.5174 35.2212 32.6191C34.8882 32.6191 34.4039 32.645 34.1098 33.0238C33.9628 33.1579 33.552 33.1969 33.4006 33.0238C32.4341 33.1103 29.699 32.7056 29.3595 34.1361C29.6168 35.2442 30.5271 38.0186 32.3866 37.7784C32.4882 37.7784 32.6893 37.878 32.6893 37.9797C33.3963 39.395 34.6093 40.3062 35.7163 40.3062C36.8234 40.3062 39.578 39.3171 41.6774 38.2827H42.5726C43.8547 38.1636 44.3672 37.8195 45.098 36.3609C46.0688 35.3914 45.2839 38.3454 48.3629 37.7286L48.3542 37.7243ZM46.4083 31.2037C46.1056 31.5067 45.8029 31.6084 45.3985 32.2144C44.6915 31.9114 44.5899 31.0003 44.4904 30.5956C45.0958 30.496 46.4083 30.1909 47.1175 30.0913C46.711 30.496 46.5077 30.6973 46.4061 31.2037H46.4083Z" fill="white"/>
<path d="M62.1998 34.4759C60.8871 33.7689 60.3811 32.2533 59.5723 31.1419C57.4574 28.9539 57.0984 25.2112 56.5448 22.1475C55.9869 19.1724 53.4459 16.9714 51.6835 14.6709C50.12 13.3952 46.0393 9.52937 44.1147 8.911C41.5737 7.85372 39.3571 9.85152 37.2422 10.831C35.5251 11.538 33.7065 11.7391 32.1905 13.0536C29.8118 16.1065 28.3823 13.6633 25.6208 16.0806C21.512 20.3875 19.955 16.5973 14.3044 21.6394C12.7906 22.5475 11.3741 23.4578 9.54682 23.3561C6.64256 23.2199 5.65429 19.3173 7.92926 17.5962C9.51438 15.8233 13.4069 14.0006 11.4715 11.1337C9.46032 9.34126 7.09453 10.1045 4.70278 8.10669C3.5999 9.83639 5.00986 12.1823 6.82421 12.7553C7.56812 13.2179 9.29813 12.4807 9.65279 13.5574C8.88725 15.0903 6.7961 15.9206 5.81432 17.3995C3.36851 20.2232 5.78404 24.8523 9.24839 25.0685C10.5286 25.4837 12.1613 24.4372 12.9874 24.8675C13.089 25.8772 12.9874 26.7874 13.1907 27.6977C13.2837 28.6922 14.4168 29.7603 13.7962 30.7246C12.7908 31.5903 11.4875 32.0301 10.1631 31.9506C9.4733 32.7441 9.35652 33.6457 8.94997 34.5775C8.4461 35.4856 7.4362 35.89 6.7269 36.2943C6.2598 37.0056 5.79485 37.7926 4.80658 37.9115C4.20108 38.6185 4.09944 39.5288 3.89833 40.4391C6.42631 41.1072 6.96694 40.7677 8.34446 38.6185C8.85049 38.1148 9.55763 38.5191 10.0615 38.6185C11.4974 38.4477 12.5679 37.4878 13.5994 36.5991C17.2757 35.637 17.2411 38.0456 21.4796 35.2846C22.1889 34.9819 22.4916 34.1732 22.7944 33.5657C23.1491 32.8889 24.1287 31.5852 22.896 31.2436C19.7236 37.6651 14.2006 32.4392 9.95986 37.2975C9.31111 37.4769 9.81497 36.4672 9.95986 36.2856C13.0025 31.8533 19.9226 35.7559 22.2862 30.0155C22.7014 29.1333 22.4657 25.6177 23.4994 25.6696C23.601 25.6696 23.9038 25.7712 23.9038 25.9723C22.922 30.2576 23.5707 31.5873 28.1466 30.8371C29.7123 30.383 34.2017 31.9808 34.1087 29.8274C34.1087 29.423 33.7043 29.222 34.1087 28.9193C34.2082 28.8177 34.5131 28.9193 34.6126 29.0187C34.898 30.7484 36.4161 32.0176 37.8563 32.7592C40.7606 34.7354 39.5863 37.3148 36.2388 37.2045C35.1272 36.5991 34.8245 35.4856 34.0157 34.5775C33.0707 33.7495 31.7797 34.1451 30.6811 34.3743C30.1361 35.1981 31.4315 36.1797 31.691 37.0034C32.197 37.3061 32.9042 36.8002 33.3086 37.4056C33.713 38.011 33.9141 38.6185 34.5217 39.0229C36.2734 40.7028 39.928 37.7515 41.7964 37.6088C43.4291 37.7861 44.1752 36.2986 44.7267 35.0813C45.6479 33.3992 43.1978 31.7365 43.0096 30.2317C42.4517 30.0782 41.7121 29.6414 41.2904 30.2317C41.5997 30.9841 43.334 33.7365 43.2107 34.5775C42.9837 35.1851 42.469 36.5948 41.697 36.4975C41.9002 35.7905 42.203 34.984 42.203 34.1732C41.8354 33.3084 40.2113 30.8111 40.0816 29.929C40.4038 29.0749 42.0624 29.5701 42.7069 28.716C43.4162 27.6047 43.6173 26.4934 43.8206 25.0793C43.864 24.9334 43.9776 24.8189 44.1233 24.7745C45.1073 25.408 44.106 28.4501 43.5156 29.1203C43.4594 30.1668 45.5225 29.4663 45.942 29.1203C46.7227 29.2825 48.3056 28.5041 48.6689 29.0187C48.1957 29.6153 47.8518 30.3037 47.659 31.0403C47.0535 31.7473 46.0436 32.2533 46.0436 33.263C46.1539 33.8986 47.0081 32.8738 47.0535 33.6673C46.1734 34.7851 46.2837 35.0554 46.5475 36.2943C47.4709 37.5915 49.2355 36.5235 50.3881 36.1948C52.3344 35.4316 54.525 36.6402 56.0474 34.5775C56.4594 34.6128 56.8321 34.8362 57.0573 35.1829C58.1831 36.3655 59.7715 36.994 61.4018 36.9018C62.0636 36.4413 60.6168 36.0802 60.3919 35.8899C59.6848 35.4856 58.7744 34.8802 58.5732 34.0716C58.3073 32.943 57.492 31.9095 56.9557 30.8392C59.315 30.8738 59.5637 35.8013 63.0107 35.0835C63.1794 34.9667 63.1621 34.8413 63.1124 34.6792L62.1998 34.4759ZM45.224 19.2178C45.1224 19.3195 45.0208 19.3195 44.8196 19.3195C44.5493 18.2989 44.4542 17.233 43.9092 16.3876C43.6259 16.1109 43.2605 15.7498 43.5048 15.2763C43.6565 15.1006 43.9119 15.0579 44.1125 15.1747C45.0381 15.8665 45.1938 16.8309 45.224 18.0049C45.4251 18.206 45.3235 18.8135 45.224 19.2178ZM53.5086 33.4662C53.0469 33.5891 52.5721 33.6566 52.0943 33.6673H51.9949C51.3959 33.1159 52.6436 32.0154 53.3075 32.05C53.3724 32.05 53.5432 32.05 53.6103 32.05C53.9801 32.2035 53.8849 33.1787 53.5086 33.4662ZM56.1361 27.6047C56.0236 27.8015 55.8506 28.316 55.6322 28.3117C55.4138 28.3074 55.3187 28.3441 55.3295 28.1106C55.31 27.4317 55.1997 26.5972 54.6202 26.1907C53.301 24.1388 52.968 26.7096 52.4987 26.3918C52.2176 25.8209 52.6609 25.1745 52.9031 24.675C53.0156 24.5388 53.061 24.381 53.2059 24.2707C53.4221 23.0275 54.5575 23.7367 54.8234 24.4718C55.5198 25.3366 56.3372 26.3118 56.2377 27.302C56.1361 27.2004 56.1361 27.4036 56.1361 27.6047ZM4.9039 36.9018C5.61104 36.4975 6.01543 35.7905 6.31818 35.1829C6.10193 34.8435 5.8381 34.3959 5.30829 34.5775C4.82775 34.9488 4.32194 35.2862 3.79453 35.5873C3.54151 36.2748 4.17297 37.1397 4.90606 36.9018H4.9039ZM2.68299 36.9018C1.4828 37.3926 2.11857 38.8715 1.37034 39.6304C1.37034 39.7299 1.16707 39.9331 1.37034 40.0347C1.87421 40.1342 2.2786 40.3374 2.88411 40.4391C3.15442 39.5353 3.41609 38.5299 3.59125 37.7105C3.38797 37.4056 3.08522 37.0034 2.68083 36.9018H2.68299ZM35.4213 34.6792C35.8257 35.1829 35.8257 35.89 36.3318 36.2943C36.9499 36.3806 37.5754 36.1971 38.0488 35.7905C38.3516 35.5873 37.9472 35.2846 37.8477 34.9819C37.5428 34.5775 37.746 33.7689 37.0389 33.7689C36.2734 33.9462 35.4343 33.7257 34.7142 33.97C34.7142 34.2748 35.3197 34.2748 35.4213 34.6792Z" fill="#DB0A40"/>
<path d="M84.9067 27.8016C84.8569 26.131 84.1815 24.3178 83.0516 23.127L82.9997 23.0665C82.4217 25.3465 81.5927 27.3586 79.2116 30.9829C78.296 32.3703 76.6704 32.4309 75.6638 33.7038C75.4257 33.5741 75.495 33.3969 75.1876 33.7254C76.4561 32.3639 75.0058 33.0641 75.5989 32.4092C77.8111 29.9671 79.8372 27.7671 80.6944 24.4713C80.3329 24.923 80.1142 25.0634 79.7506 25.5216C80.1619 24.119 80.4822 22.9282 80.7874 21.4889L80.3978 21.3333C79.0406 25.9128 76.8002 29.9196 72.7005 32.6686C67.3756 36.5328 71.8715 35.2404 72.7676 34.4407C66.0573 41.2808 51.2039 45.6788 42.6667 38.7199C43.9135 39.9323 45.4439 41.2873 46.8985 42.1777C46.0131 42.0264 45.3832 41.3414 44.5477 41.0799C44.5607 41.108 46.5781 43.7294 52.6 44.4167C52.9875 44.4599 53.3576 44.4988 53.7148 44.5312C61.9251 45.1796 62.4251 43.7122 68.1548 42.5019C68.4124 42.6121 66.3084 43.697 63.4144 44.514C58.8449 46.1824 53.5395 44.9462 49.667 44.5442H49.6843C49.7731 44.5874 50.3748 44.8641 53.455 45.9641C53.2386 46.0419 52.232 46.1802 48.0327 44.3821C58.3362 50.3145 69.4255 45.8236 78.5298 39.0829C78.5298 39.1132 78.5168 39.1564 78.5168 39.1932C78.5969 39.2061 78.6986 39.2191 78.7808 39.2256C78.7311 39.3704 78.7311 39.3704 78.0254 40.2111C79.5623 38.9727 80.3502 37.0514 81.978 35.8887C81.1446 37.5593 80.0796 38.7566 78.0968 40.693C78.2478 40.5778 78.3923 40.4544 78.5298 40.3234C75.5318 43.12 71.5771 45.8949 65.4404 47.3516C65.8846 47.3001 66.324 47.2134 66.7543 47.0922C65.9772 47.3083 65.9556 47.3343 65.6266 47.4423C65.8301 47.4164 65.83 47.4164 66.8885 47.2024C66.2716 47.505 65.5595 47.6498 63.8365 47.9999C74.0512 46.3834 84.6751 38.4475 84.9067 27.8016Z" fill="url(#paint0_linear_3_23)"/>
<path d="M74.5566 41.7691C70.5044 44.3323 66.0211 46.568 61.0133 47.1388C67.0374 47.3542 74.186 43.0184 78.08 39.4666C76.9142 40.242 75.7484 41.0217 74.5566 41.7691Z" fill="url(#paint1_linear_3_23)"/>
<path d="M68.0533 42.4534C62.2877 43.6797 61.961 45.1448 53.7117 44.5207C53.0626 44.72 49.6335 44.5097 49.0667 44.3236C49.0948 44.3236 49.3609 44.4397 49.5902 44.5316H49.5751C50.4405 44.4221 56.1456 45.6529 57.9672 45.4076C60.3319 45.5697 67.7526 43.3381 68.0533 42.4534Z" fill="url(#paint2_linear_3_23)"/>
<path d="M80.9183 21.6347L80.7141 21.5466C80.4055 22.9686 80.0861 24.1586 79.6733 25.5527C80.0383 25.0973 80.2578 24.9577 80.6206 24.5088C79.7516 27.7845 77.7266 29.9712 75.5061 32.3985C74.9108 33.0429 76.3752 32.3534 75.0933 33.7066C75.4019 33.3801 75.3323 33.5563 75.5713 33.6852C76.5794 32.42 78.2133 32.3598 79.1323 30.9808C81.5223 27.3764 82.3544 25.3787 82.9324 23.1125C82.9516 23.1316 82.9697 23.1516 82.9867 23.1727C82.4048 22.5321 81.7022 22.0097 80.9183 21.6347Z" fill="url(#paint3_linear_3_23)"/>
<path d="M53.9148 39.5495C50.1308 37.4046 52.8738 38.8309 56.1891 39.6146C58.6179 40.213 61.1237 40.4327 63.6189 40.2659C67.5671 38.7463 70.9407 36.5384 72.8154 34.4435C71.9169 35.2684 67.4742 36.5037 72.7506 32.6633C76.837 29.9019 79.0768 25.8813 80.4267 21.2832C79.3681 20.8922 78.269 20.6227 77.1502 20.48C75.5692 24.2596 75.3338 26.8843 71.8306 28.9727C67.9213 31.5301 70.3683 30.8744 70.4072 30.8549C70.7117 30.7333 71.0015 30.5775 71.2712 30.3903C69.7593 32.8218 67.1286 34.374 63.9925 35.0752C63.8932 36.0565 62.3964 35.7265 62.4547 36.4863C62.647 37.3699 61.6837 37.7889 60.8522 37.7281C58.2604 37.7563 57.0055 36.4841 55.945 35.8741C54.2906 36.9769 53.5131 37.1181 51.431 36.8858C50.3964 36.901 49.4526 37.4285 48.4267 37.6673C49.8953 38.9872 56.2193 40.6849 53.9148 39.5495ZM73.8608 29.0205C74.5195 27.5768 76.0487 26.8018 76.5519 25.0585C76.4785 25.3147 77.0249 25.421 77.2409 25.421C78.1049 25.2734 78.1264 24.0837 78.4051 23.8363C78.1891 26.5391 76.364 28.7534 74.3684 30.5857C74.1057 30.4259 73.7803 30.4111 73.5044 30.5466C73.4202 30.0386 74.5152 29.3309 73.8608 29.0205Z" fill="url(#paint4_linear_3_23)"/>
<path d="M77.3242 13.1023C74.7903 11.6552 71.9283 11.3173 69.2368 10.2428C73.2859 11.1093 78.1013 11.991 81.095 15.0325C81.1424 15.0563 81.2547 15.1668 81.3108 15.182C81.5698 15.3575 81.8655 15.9792 82.226 15.7496C75.945 3.447 56.8649 4.81612 47.7867 9.86149C48.2809 10.2428 48.8249 10.6912 49.3321 11.1245C51.0588 9.72068 58.0628 8.7415 58.6801 8.83682C56.3404 9.30691 52.4639 10.7194 50.1091 11.7787L50.4393 12.0581C55.2439 10.3619 62.5565 9.1791 67.7388 10.4269C63.5969 10.8883 56.213 10.8255 51.3005 12.7882C52.6495 13.8129 53.8517 15.6781 55.0108 17.0472C63.0249 13.124 67.6482 12.9962 71.7016 13.5096C72.0901 13.7262 68.8267 13.8627 69.6188 14.1032C70.4994 14.3068 72.1506 13.8172 72.5326 13.7674C72.7808 13.6872 74.3392 13.7392 74.8313 13.8324C76.7048 14.2895 74.9479 14.5278 74.2939 14.3739C73.9717 14.3481 73.6478 14.3546 73.3269 14.3934C72.6038 14.5299 71.7297 14.6902 71.0088 14.7985C70.8145 14.831 68.6151 14.7726 68.9497 15.0585C69.3706 15.0303 71.2225 15.3661 71.6995 15.3098C71.9865 15.2448 72.2779 15.3423 72.5499 15.195C72.6837 15.1018 73.2319 15.0347 73.2557 15.2643C72.6319 16.6594 70.7368 15.6131 69.3101 15.9142C68.0389 16.0095 66.6899 16.5793 66.4611 16.38C70.6311 13.8345 60.5017 17.6169 60.6723 18.2603C60.6835 18.2636 60.6955 18.2636 60.7068 18.2603C60.737 18.8301 62.3277 18.0004 62.6493 18.061C63.3465 18.0069 64.2897 17.5714 64.9696 17.4111C65.479 17.4111 65.6797 17.6668 66.187 17.5541C67.3007 17.5346 68.3065 17.0537 69.3814 16.8414C69.4763 16.8414 70.1476 17.1252 70.1152 17.2032C72.1398 19.025 73.2082 17.5065 75.4292 18.1065C75.7832 18.1542 75.3644 18.3838 75.2436 18.4553C74.0716 19.2828 72.6794 19.4107 71.3218 19.5103C71.0944 19.4835 70.8642 19.521 70.657 19.6186C70.2102 19.584 69.7936 19.8353 69.3468 19.7681C68.0755 19.7941 66.8194 19.9847 65.6776 20.5675C65.2459 20.652 64.7559 20.7213 64.4343 21.0441C64.1063 21.3105 63.612 21.2087 63.3228 21.5077C62.8307 21.8044 59.1182 22.5908 59.5369 23.3555C59.5369 23.3555 59.524 23.3555 59.5154 23.3555H59.5369C59.5389 23.3721 59.5389 23.3888 59.5369 23.4054C65.6689 22.5258 72.9794 18.1867 80.7129 21.4362C83.8965 23.0631 85.6772 25.8923 84.4081 31.3601C84.4189 31.3341 84.557 30.9702 84.5549 30.955L84.5311 30.9723C84.8916 29.6964 85.2218 28.6002 85.2132 27.3091C86.0441 22.5886 82.4742 15.9077 77.3242 13.1023ZM70.0677 8.48371C71.1923 8.73717 73.2535 9.11411 73.9269 9.82683C72.1592 9.80733 71.2829 9.04045 71.311 9.05995C70.9721 8.95597 69.908 8.57469 70.0677 8.48371Z" fill="#FAD50A"/>
<path d="M50.1311 11.826L49.3912 11.2115C51.1545 9.77127 58.0456 8.85277 58.7444 8.92392C57.7063 9.13316 56.6841 9.41413 55.6851 9.7648C53.8547 10.362 51.8382 11.108 50.1311 11.826ZM85.9215 21.7441C84.8397 13.6954 82.0833 6.62984 72.2627 4.0339C78.3359 5.5022 78.7924 6.25899 79.5843 6.78292C74.8677 2.42545 67.2691 0.90972 59.5883 2.21416C64.0669 0.767418 71.4275 0.944218 76.0317 3.79026C65.0492 -2.98634 51.849 -0.05621 43.7333 7.68201C45.2479 7.97524 46.5785 8.97567 47.8139 9.92866C57.0244 4.92221 76.0317 3.55094 82.3537 15.7976C81.9903 16.0261 81.7047 15.4095 81.4364 15.2327C81.3866 15.2176 81.2741 15.1076 81.22 15.0839C78.2169 12.0654 73.3964 11.1727 69.3332 10.3168C72.0442 11.3948 74.9001 11.7225 77.4402 13.1628C84.0673 16.9618 86.9601 24.6613 84.6666 30.9333L84.6904 30.9161C85.7107 27.9719 86.1293 24.8541 85.9215 21.7462V21.7441ZM63.5909 9.97394C59.3892 9.97394 54.0711 10.7631 50.4903 12.13L51.3298 12.8372C55.6072 11.2115 62.7969 10.7997 66.3149 10.666C70.125 10.5496 64.9843 9.98688 63.5909 9.97394ZM71.4081 9.13953C71.3388 9.10288 72.2886 9.89417 74.0303 9.90279C73.3488 9.19128 71.2934 8.82474 70.1597 8.56601C70.0039 8.65657 71.0705 9.03604 71.4102 9.13953H71.4081Z" fill="#F2940A"/>
<path fill-rule="evenodd" clip-rule="evenodd" d="M204.1 31.5999C204.1 33.3999 205.6 34.8999 207.5 34.8999C209.4 34.8999 210.9 33.3999 210.9 31.5999V20.7999H216.8V32.7999C216.8 36.7999 212.6 40.0999 207.4 40.0999C202.2 40.0999 198 36.7999 198 32.7999V20.7999H204V31.5999H204.1ZM230.3 39.3999H236.3V7.8999H230.3V39.3999ZM220.2 39.3999H226.2V7.8999H220.2V39.3999ZM110.4 14.4999H107.1V39.3999H100.7V9.3999H111.7C116.7 9.3999 120.7 13.3999 120.7 18.2999C120.7 22.3999 117.8 25.9999 113.8 26.8999L122.6 39.4999H115.1L108.7 29.6999V22.4999H110.2C112.6 22.4999 114.5 20.6999 114.5 18.5999C114.5 16.2999 112.7 14.4999 110.4 14.4999Z" fill="#D2003C"/>
<path fill-rule="evenodd" clip-rule="evenodd" d="M128.3 27.8999C128.2 25.8999 129.7 24.0999 131.8 23.9999C133.8 23.8999 135.6 25.3999 135.7 27.4999C135.7 27.5999 135.7 27.7999 135.7 27.8999H128.3ZM141.5 31.2999C141.5 30.8999 141.6 30.4999 141.6 29.9999C141.7 23.4999 137.4 19.8999 131.9 19.8999C126.4 19.8999 122 24.3999 122 29.8999C122 35.3999 126.4 39.8999 131.9 39.8999C136.1 39.8999 139.3 37.9999 141 35.0999L136.1 32.7999C135.4 34.1999 133.9 35.0999 132.3 35.0999C130 35.0999 128.2 33.3999 128.2 31.3999V31.1999C128.3 31.2999 141.5 31.2999 141.5 31.2999ZM155.1 34.7999C152.7 34.7999 150.7 32.5999 150.7 29.9999C150.7 27.2999 152.7 25.1999 155.1 25.1999C157.5 25.1999 159.5 27.3999 159.5 29.9999C159.5 32.6999 157.5 34.7999 155.1 34.7999ZM165.4 39.3999V7.8999H159.4V22.7999C157.8 21.1999 155.6 20.2999 153.4 20.2999C148.5 20.2999 144.4 24.6999 144.4 30.0999C144.4 35.4999 148.4 39.8999 153.4 39.8999C155.7 39.8999 157.9 38.8999 159.5 37.2999V39.3999H165.4ZM185.8 34.1999H180.1V14.4999H184.1C185.9 14.4999 187.3 16.0999 187.3 17.8999C187.3 19.6999 185.9 21.0999 184.1 21.0999H182V26.4999H185.8C187.9 26.4999 189.5 28.1999 189.5 30.2999V30.3999C189.4 32.4999 188.1 34.0999 185.8 34.1999ZM190.8 23.0999C192.5 21.5999 193.4 19.4999 193.4 17.2999C193.4 15.2999 192.6 13.3999 191.2 11.8999C189.8 10.2999 187.2 9.4999 183.8 9.4999H173.6V39.4999H186.9C192 39.3999 196.1 35.5999 196.1 30.8999C196 27.3999 194.8 24.9999 190.8 23.0999Z" fill="#D2003C"/>
<defs>
<linearGradient id="paint0_linear_3_23" x1="47.2946" y1="34.6741" x2="86.2682" y2="34.6741" gradientUnits="userSpaceOnUse">
<stop stop-color="#1885C8"/>
<stop offset="0.14" stop-color="#1881C3"/>
<stop offset="0.32" stop-color="#1A74B3"/>
<stop offset="0.52" stop-color="#1B6099"/>
<stop offset="0.73" stop-color="#1E4475"/>
<stop offset="0.96" stop-color="#212047"/>
<stop offset="1" stop-color="#22183D"/>
</linearGradient>
<linearGradient id="paint1_linear_3_23" x1="61.4641" y1="43.5779" x2="78.9742" y2="40.915" gradientUnits="userSpaceOnUse">
<stop offset="0.24" stop-color="#52BCE8"/>
<stop offset="1" stop-color="#3F88B9"/>
</linearGradient>
<linearGradient id="paint2_linear_3_23" x1="49.0667" y1="43.9447" x2="68.0533" y2="43.9447" gradientUnits="userSpaceOnUse">
<stop offset="0.54" stop-color="#52BCE8"/>
<stop offset="1" stop-color="#49A4D3"/>
</linearGradient>
<linearGradient id="paint3_linear_3_23" x1="78.0206" y1="27.9435" x2="80.3683" y2="27.4374" gradientUnits="userSpaceOnUse">
<stop stop-color="#3A78AC"/>
<stop offset="0.29" stop-color="#34689E"/>
<stop offset="0.86" stop-color="#253E78"/>
<stop offset="1" stop-color="#21336E"/>
</linearGradient>
<linearGradient id="paint4_linear_3_23" x1="47.9083" y1="32.2948" x2="80.8903" y2="25.025" gradientUnits="userSpaceOnUse">
<stop stop-color="#52BCE8"/>
<stop offset="0.25" stop-color="#51B9E6"/>
<stop offset="0.41" stop-color="#4EB0DE"/>
<stop offset="0.56" stop-color="#48A1D0"/>
<stop offset="0.69" stop-color="#418CBD"/>
<stop offset="0.78" stop-color="#3977AB"/>
<stop offset="0.85" stop-color="#33669C"/>
<stop offset="0.98" stop-color="#243B75"/>
<stop offset="1" stop-color="#21336E"/>
</linearGradient>
</defs>
</svg>
