<svg width="238" height="48" viewBox="0 0 238 48" fill="none" xmlns="http://www.w3.org/2000/svg">
<rect width="238" height="48" fill="#F5F5F5"/>
<g id="Desktop - 1" clip-path="url(#clip0_0_1)">
<rect width="1440" height="2866" transform="translate(-49 -2427)" fill="white"/>
<rect id="Rectangle 7" x="-50" y="-32" width="1441" height="471" fill="#00162B"/>
<g id="redbullcom-logo 2">
<g id="logo/rbcom/desktop">
<g id="f-rbmn-logo-logotype">
<g id="color---simplified">
<path id="outline" d="M49.3542 37.7243C50.4742 37.4603 51.497 36.8587 52.6429 36.9517C54.537 37.2439 55.4343 36.8738 56.8808 35.9367C57.9424 36.5448 59.2029 37.813 61.7932 37.7849C62.6257 37.839 63.5922 37.4278 63.3976 36.547C63.3457 35.7831 64.8419 36.1142 64.937 35.1403C65.1035 34.5582 64.9803 34.582 64.0722 34.0344C62.5586 33.2056 62.5846 31.6214 61.4451 30.5956C61.3197 30.4463 60.95 30.1779 60.9392 29.9896C57.1402 19.6991 61.6181 23.2115 52.991 13.5009C50.5369 11.6787 46.9499 7.48889 43.7629 7.73777C40.8699 7.83083 40.1369 9.46909 38.005 10.1638C35.3152 11.1182 33.7022 11.3909 31.5379 13.41C30.1368 14.5873 28.2752 13.133 26.2838 15.2301C22.0654 19.487 21.5919 15.4854 14.6665 20.8958C11.0859 24.0079 6.13883 21.7615 10.1259 17.76C12.1475 16.3165 14.7075 14.5397 13.7627 11.7826C13.4427 9.71797 10.4783 9.14664 8.6102 8.85015C7.52911 8.63373 5.68261 7.21188 5.07288 6.82666C3.24368 8.88044 4.15828 13.6264 8.09992 14.109C8.26297 14.1186 8.39304 14.2488 8.40263 14.412C8.41776 14.5544 8.38257 14.6976 8.30317 14.8167C5.4772 17.0436 4.86963 17.9526 4.77017 20.4825C4.55396 23.9451 7.40587 26.5681 11.0405 26.4491C11.6188 26.4587 12.197 26.4247 12.7702 26.3473C12.8697 26.3473 12.9713 26.3473 12.9713 26.4491C13.2567 28.0137 13.3778 29.9269 13.8816 30.496C13.981 30.6973 13.981 30.9007 13.78 31.0003C12.6232 32.1386 10.1583 30.8553 9.53561 32.9221C9.14858 33.7661 9.24155 34.8157 8.32479 35.2485C7.67614 35.1057 7.50316 34.1448 6.60586 34.1361C5.70856 34.1275 4.22747 34.7984 3.57881 36.2613C2.88692 36.7353 2.18637 36.4128 1.86205 37.4733C1.71502 37.4625 1.63502 38.0338 1.66096 38.2827C1.63291 38.7473 1.49428 39.1984 1.25664 39.5985C0.590687 40.4403 1.31285 41.4705 2.368 41.622C3.14854 41.6826 3.64152 41.9899 3.88152 41.7215C3.98098 41.7215 3.98098 41.622 4.0826 41.622C4.29882 41.4164 4.46531 41.5657 4.68801 41.622C5.13774 41.6458 5.79072 41.9964 6.30532 41.9249C6.4164 41.9112 6.5277 41.9486 6.60802 42.0267C8.12155 42.0137 8.60155 41.4099 9.13344 40.6091C9.10534 40.2499 9.3929 40.0032 9.53777 39.7002C9.67615 39.5552 9.77561 39.4838 9.9421 39.4968C10.2037 39.5725 10.807 39.6612 10.954 39.7002C13.2675 39.9036 13.8729 37.536 15.7108 37.272C16.1648 37.272 17.0081 37.3607 18.8416 37.575C20.0438 37.6702 21.22 36.7959 22.3789 36.1596C22.8979 35.8999 23.3497 35.7549 23.793 35.1468C24.3379 34.714 24.993 32.0434 25.713 32.0131C27.1898 31.9828 28.5865 31.498 30.0568 31.5067C31.8622 31.4266 33.6979 31.9287 35.3109 31.3054C35.3714 31.3271 35.726 31.2513 35.8169 31.405C36.046 31.7448 36.6925 31.8962 36.5239 32.3161C36.5239 32.4178 36.3206 32.5174 36.2212 32.6191C35.8882 32.6191 35.4039 32.645 35.1098 33.0238C34.9628 33.1579 34.552 33.1969 34.4006 33.0238C33.4341 33.1103 30.699 32.7056 30.3595 34.1361C30.6168 35.2442 31.5271 38.0186 33.3866 37.7784C33.4882 37.7784 33.6893 37.878 33.6893 37.9797C34.3963 39.395 35.6093 40.3062 36.7163 40.3062C37.8234 40.3062 40.578 39.3171 42.6774 38.2827H43.5726C44.8547 38.1636 45.3672 37.8195 46.098 36.3609C47.0688 35.3914 46.2839 38.3454 49.3629 37.7286L49.3542 37.7243ZM47.4083 31.2037C47.1056 31.5067 46.8029 31.6084 46.3985 32.2144C45.6915 31.9114 45.5899 31.0003 45.4904 30.5956C46.0958 30.496 47.4083 30.1909 48.1175 30.0913C47.711 30.496 47.5077 30.6973 47.4061 31.2037H47.4083Z" fill="white"/>
<path id="bull" d="M63.1998 34.4757C61.8871 33.7687 61.3811 32.253 60.5723 31.1417C58.4574 28.9536 58.0984 25.211 57.5448 22.1473C56.9869 19.1722 54.4459 16.9711 52.6835 14.6706C51.12 13.395 47.0393 9.52912 45.1147 8.91075C42.5737 7.85348 40.3571 9.85128 38.2422 10.8307C36.5251 11.5377 34.7065 11.7388 33.1905 13.0534C30.8118 16.1063 29.3823 13.6631 26.6208 16.0803C22.512 20.3873 20.955 16.5971 15.3044 21.6392C13.7906 22.5473 12.3741 23.4575 10.5468 23.3559C7.64256 23.2197 6.65429 19.317 8.92926 17.596C10.5144 15.8231 14.4069 14.0004 12.4715 11.1334C10.4603 9.34102 8.09453 10.1042 5.70278 8.10645C4.5999 9.83614 6.00986 12.182 7.82421 12.755C8.56812 13.2177 10.2981 12.4804 10.6528 13.5572C9.88725 15.0901 7.7961 15.9204 6.81432 17.3992C4.36851 20.223 6.78404 24.8521 10.2484 25.0683C11.5286 25.4834 13.1613 24.437 13.9874 24.8672C14.089 25.8769 13.9874 26.7872 14.1907 27.6974C14.2837 28.692 15.4168 29.7601 14.7962 30.7244C13.7908 31.59 12.4875 32.0298 11.1631 31.9503C10.4733 32.7438 10.3565 33.6454 9.94997 34.5773C9.4461 35.4854 8.4362 35.8897 7.7269 36.294C7.2598 37.0054 6.79485 37.7924 5.80658 37.9113C5.20108 38.6183 5.09944 39.5286 4.89833 40.4388C7.42631 41.1069 7.96694 40.7675 9.34446 38.6183C9.85049 38.1145 10.5576 38.5188 11.0615 38.6183C12.4974 38.4475 13.5679 37.4875 14.5994 36.5989C18.2757 35.6367 18.2411 38.0453 22.4796 35.2843C23.1889 34.9816 23.4916 34.173 23.7944 33.5654C24.1491 32.8887 25.1287 31.5849 23.896 31.2433C20.7236 37.6648 15.2006 32.439 10.9599 37.2972C10.3111 37.4767 10.815 36.467 10.9599 36.2854C14.0025 31.853 20.9226 35.7557 23.2862 30.0152C23.7014 29.1331 23.4657 25.6175 24.4994 25.6694C24.601 25.6694 24.9038 25.771 24.9038 25.9721C23.922 30.2574 24.5707 31.5871 29.1466 30.8368C30.7123 30.3828 35.2017 31.9806 35.1087 29.8271C35.1087 29.4228 34.7043 29.2217 35.1087 28.919C35.2082 28.8174 35.5131 28.919 35.6126 29.0185C35.898 30.7482 37.4161 32.0173 38.8563 32.759C41.7606 34.7351 40.5863 37.3145 37.2388 37.2043C36.1272 36.5989 35.8245 35.4854 35.0157 34.5773C34.0707 33.7492 32.7797 34.1449 31.6811 34.3741C31.1361 35.1978 32.4315 36.1794 32.691 37.0032C33.197 37.3059 33.9042 36.8 34.3086 37.4054C34.713 38.0107 34.9141 38.6183 35.5217 39.0226C37.2734 40.7026 40.928 37.7513 42.7964 37.6086C44.4291 37.7859 45.1752 36.2983 45.7267 35.0811C46.6479 33.3989 44.1978 31.7363 44.0096 30.2314C43.4517 30.0779 42.7121 29.6412 42.2904 30.2314C42.5997 30.9839 44.334 33.7362 44.2107 34.5773C43.9837 35.1849 43.469 36.5946 42.697 36.4973C42.9002 35.7903 43.203 34.9838 43.203 34.173C42.8354 33.3081 41.2113 30.8109 41.0816 29.9287C41.4038 29.0747 43.0624 29.5698 43.7069 28.7158C44.4162 27.6045 44.6173 26.4931 44.8206 25.0791C44.864 24.9332 44.9776 24.8187 45.1233 24.7742C46.1073 25.4077 45.106 28.4498 44.5156 29.1201C44.4594 30.1666 46.5225 29.466 46.942 29.1201C47.7227 29.2823 49.3056 28.5039 49.6689 29.0185C49.1957 29.615 48.8518 30.3035 48.659 31.0401C48.0535 31.7471 47.0436 32.253 47.0436 33.2627C47.1539 33.8984 48.0081 32.8735 48.0535 33.667C47.1734 34.7849 47.2837 35.0551 47.5475 36.294C48.4709 37.5913 50.2355 36.5232 51.3881 36.1946C53.3344 35.4313 55.525 36.64 57.0474 34.5773C57.4594 34.6126 57.8321 34.836 58.0573 35.1827C59.1831 36.3653 60.7715 36.9937 62.4018 36.9016C63.0636 36.441 61.6168 36.08 61.3919 35.8897C60.6848 35.4854 59.7744 34.88 59.5732 34.0714C59.3073 32.9427 58.492 31.9092 57.9557 30.839C60.315 30.8736 60.5637 35.8011 64.0107 35.0832C64.1794 34.9665 64.1621 34.8411 64.1124 34.6789L63.1998 34.4757ZM46.224 19.2176C46.1224 19.3192 46.0208 19.3192 45.8196 19.3192C45.5493 18.2987 45.4542 17.2328 44.9092 16.3874C44.6259 16.1106 44.2605 15.7495 44.5048 15.276C44.6565 15.1004 44.9119 15.0576 45.1125 15.1744C46.0381 15.8663 46.1938 16.8306 46.224 18.0046C46.4251 18.2057 46.3235 18.8133 46.224 19.2176ZM54.5086 33.466C54.0469 33.5889 53.5721 33.6564 53.0943 33.667H52.9949C52.3959 33.1157 53.6436 32.0152 54.3075 32.0498C54.3724 32.0498 54.5432 32.0498 54.6103 32.0498C54.9801 32.2033 54.8849 33.1784 54.5086 33.466ZM57.1361 27.6045C57.0236 27.8012 56.8506 28.3158 56.6322 28.3115C56.4138 28.3071 56.3187 28.3439 56.3295 28.1104C56.31 27.4315 56.1997 26.5969 55.6202 26.1904C54.301 24.1386 53.968 26.7093 53.4987 26.3915C53.2176 25.8207 53.6609 25.1742 53.9031 24.6748C54.0156 24.5386 54.061 24.3807 54.2059 24.2705C54.4221 23.0272 55.5575 23.7364 55.8234 24.4715C56.5198 25.3364 57.3372 26.3115 57.2377 27.3018C57.1361 27.2001 57.1361 27.4034 57.1361 27.6045ZM5.9039 36.9016C6.61104 36.4973 7.01543 35.7902 7.31818 35.1827C7.10193 34.8432 6.8381 34.3957 6.30829 34.5773C5.82775 34.9486 5.32194 35.286 4.79453 35.587C4.54151 36.2746 5.17297 37.1394 5.90606 36.9016H5.9039ZM3.68299 36.9016C2.4828 37.3924 3.11857 38.8713 2.37034 39.6302C2.37034 39.7296 2.16707 39.9329 2.37034 40.0345C2.87421 40.1339 3.2786 40.3372 3.88411 40.4388C4.15442 39.535 4.41609 38.5297 4.59125 37.7102C4.38797 37.4054 4.08522 37.0032 3.68083 36.9016H3.68299ZM36.4213 34.6789C36.8257 35.1827 36.8257 35.8897 37.3318 36.294C37.9499 36.3804 38.5754 36.1969 39.0488 35.7902C39.3516 35.587 38.9472 35.2843 38.8477 34.9816C38.5428 34.5773 38.746 33.7687 38.0389 33.7687C37.2734 33.946 36.4343 33.7254 35.7142 33.9697C35.7142 34.2746 36.3197 34.2746 36.4213 34.6789Z" fill="#DB0A40"/>
<path id="splash-4" d="M85.9067 27.8019C85.8569 26.1313 85.1815 24.3181 84.0516 23.1273L83.9997 23.0668C83.4217 25.3468 82.5927 27.3588 80.2116 30.9831C79.296 32.3706 77.6704 32.4311 76.6638 33.704C76.4257 33.5744 76.495 33.3971 76.1876 33.7256C77.4561 32.3641 76.0058 33.0643 76.5989 32.4095C78.8111 29.9674 80.8372 27.7673 81.6944 24.4715C81.3329 24.9232 81.1142 25.0637 80.7506 25.5218C81.1619 24.1192 81.4822 22.9284 81.7874 21.4891L81.3978 21.3335C80.0406 25.913 77.8002 29.9198 73.7005 32.6688C68.3756 36.533 72.8714 35.2406 73.7676 34.441C67.0573 41.2811 52.2038 45.6791 43.6667 38.7201C44.9135 39.9325 46.4438 41.2876 47.8985 42.178C47.0131 42.0267 46.3832 41.3416 45.5477 41.0801C45.5607 41.1082 47.5781 43.7297 53.6 44.4169C53.9875 44.4602 54.3576 44.4991 54.7148 44.5315C62.9251 45.1798 63.4251 43.7124 69.1548 42.5021C69.4124 42.6124 67.3084 43.6973 64.4144 44.5142C59.8449 46.1826 54.5394 44.9464 50.667 44.5445H50.6843C50.773 44.5877 51.3748 44.8643 54.455 45.9643C54.2386 46.0421 53.232 46.1805 49.0327 44.3824C59.3362 50.3148 70.4254 45.8239 79.5298 39.0832C79.5298 39.1134 79.5168 39.1567 79.5168 39.1934C79.5969 39.2064 79.6986 39.2193 79.7808 39.2258C79.7311 39.3706 79.7311 39.3706 79.0254 40.2113C80.5623 38.973 81.3502 37.0517 82.978 35.889C82.1446 37.5596 81.0796 38.7568 79.0968 40.6933C79.2478 40.5781 79.3923 40.4547 79.5298 40.3237C76.5318 43.1202 72.5771 45.8952 66.4404 47.3518C66.8846 47.3003 67.324 47.2136 67.7543 47.0925C66.9772 47.3086 66.9556 47.3345 66.6266 47.4426C66.8301 47.4166 66.83 47.4166 67.8885 47.2027C67.2716 47.5053 66.5595 47.6501 64.8365 48.0002C75.0512 46.3836 85.6751 38.4478 85.9067 27.8019Z" fill="url(#paint0_linear_0_1)"/>
<path id="splash-3.4" d="M75.5566 41.7693C71.5044 44.3325 67.0211 46.5683 62.0133 47.1391C68.0374 47.3545 75.186 43.0186 79.08 39.4668C77.9142 40.2422 76.7484 41.0219 75.5566 41.7693Z" fill="url(#paint1_linear_0_1)"/>
<path id="splash-3.3" d="M69.0533 42.4531C63.2877 43.6795 62.961 45.1446 54.7117 44.5204C54.0626 44.7197 50.6335 44.5095 50.0667 44.3233C50.0948 44.3233 50.3609 44.4394 50.5902 44.5314H50.5751C51.4405 44.4219 57.1456 45.6527 58.9672 45.4074C61.3319 45.5694 68.7526 43.3379 69.0533 42.4531Z" fill="url(#paint2_linear_0_1)"/>
<path id="splash-3.2" d="M81.9183 21.6349L81.7141 21.5469C81.4055 22.9689 81.0861 24.1589 80.6733 25.553C81.0383 25.0976 81.2578 24.9579 81.6206 24.509C80.7516 27.7848 78.7266 29.9715 76.5061 32.3987C75.9108 33.0431 77.3752 32.3536 76.0933 33.7069C76.4019 33.3804 76.3323 33.5565 76.5713 33.6854C77.5794 32.4202 79.2133 32.3601 80.1323 30.981C82.5223 27.3766 83.3544 25.379 83.9324 23.1128C83.9516 23.1318 83.9697 23.1519 83.9867 23.1729C83.4048 22.5323 82.7022 22.0099 81.9183 21.6349Z" fill="url(#paint3_linear_0_1)"/>
<path id="splash-3.1" d="M54.9148 39.5495C51.1308 37.4046 53.8738 38.8309 57.1891 39.6146C59.6179 40.213 62.1237 40.4327 64.6189 40.2659C68.5671 38.7463 71.9407 36.5384 73.8154 34.4435C72.9169 35.2684 68.4742 36.5037 73.7506 32.6633C77.837 29.9019 80.0768 25.8813 81.4267 21.2832C80.3681 20.8922 79.269 20.6227 78.1502 20.48C76.5692 24.2596 76.3338 26.8843 72.8306 28.9727C68.9213 31.5301 71.3683 30.8744 71.4072 30.8549C71.7117 30.7333 72.0015 30.5775 72.2712 30.3903C70.7593 32.8218 68.1286 34.374 64.9925 35.0752C64.8932 36.0565 63.3964 35.7265 63.4547 36.4863C63.647 37.3699 62.6837 37.7889 61.8522 37.7281C59.2604 37.7563 58.0055 36.4841 56.945 35.8741C55.2906 36.9769 54.5131 37.1181 52.431 36.8858C51.3964 36.901 50.4526 37.4285 49.4267 37.6673C50.8953 38.9872 57.2193 40.6849 54.9148 39.5495ZM74.8608 29.0205C75.5195 27.5768 77.0487 26.8018 77.5519 25.0585C77.4785 25.3147 78.0249 25.421 78.2409 25.421C79.1049 25.2734 79.1264 24.0837 79.4051 23.8363C79.1891 26.5391 77.364 28.7534 75.3684 30.5857C75.1057 30.4259 74.7803 30.4111 74.5044 30.5466C74.4202 30.0386 75.5152 29.3309 74.8608 29.0205Z" fill="url(#paint4_linear_0_1)"/>
<path id="splash-2" d="M78.3242 13.1021C75.7903 11.655 72.9283 11.317 70.2368 10.2425C74.2859 11.1091 79.1013 11.9907 82.095 15.0323C82.1424 15.0561 82.2547 15.1666 82.3108 15.1817C82.5698 15.3572 82.8655 15.9789 83.226 15.7493C76.945 3.44676 57.8649 4.81588 48.7867 9.86125C49.2809 10.2425 49.8249 10.6909 50.3321 11.1242C52.0588 9.72044 59.0628 8.74126 59.6801 8.83658C57.3404 9.30667 53.4639 10.7191 51.1091 11.7784L51.4393 12.0579C56.2439 10.3617 63.5565 9.17886 68.7388 10.4267C64.5969 10.8881 57.213 10.8253 52.3005 12.788C53.6495 13.8126 54.8517 15.6778 56.0108 17.0469C64.0249 13.1237 68.6482 12.9959 72.7016 13.5093C73.0901 13.726 69.8267 13.8625 70.6188 14.1029C71.4994 14.3065 73.1506 13.817 73.5326 13.7671C73.7808 13.687 75.3392 13.739 75.8313 13.8321C77.7048 14.2892 75.9479 14.5275 75.2939 14.3737C74.9717 14.3478 74.6478 14.3543 74.3269 14.3932C73.6038 14.5297 72.7297 14.69 72.0088 14.7983C71.8145 14.8308 69.6151 14.7723 69.9497 15.0583C70.3706 15.0301 72.2225 15.3659 72.6995 15.3096C72.9865 15.2446 73.2779 15.342 73.5499 15.1947C73.6837 15.1016 74.2319 15.0344 74.2557 15.2641C73.6319 16.6592 71.7368 15.6128 70.3101 15.914C69.0389 16.0093 67.6899 16.579 67.4611 16.3797C71.6311 13.8343 61.5017 17.6167 61.6723 18.2601C61.6835 18.2633 61.6955 18.2633 61.7068 18.2601C61.737 18.8298 63.3277 18.0001 63.6493 18.0608C64.3465 18.0066 65.2897 17.5712 65.9696 17.4109C66.479 17.4109 66.6797 17.6665 67.187 17.5539C68.3007 17.5344 69.3065 17.0534 70.3814 16.8411C70.4763 16.8411 71.1476 17.1249 71.1152 17.2029C73.1398 19.0248 74.2082 17.5062 76.4292 18.1063C76.7832 18.1539 76.3644 18.3836 76.2436 18.4551C75.0716 19.2826 73.6794 19.4104 72.3218 19.5101C72.0944 19.4833 71.8642 19.5208 71.657 19.6184C71.2102 19.5837 70.7936 19.835 70.3468 19.7679C69.0755 19.7938 67.8194 19.9845 66.6776 20.5672C66.2459 20.6517 65.7559 20.721 65.4343 21.0438C65.1063 21.3103 64.612 21.2085 64.3228 21.5074C63.8307 21.8042 60.1182 22.5906 60.5369 23.3553C60.5369 23.3553 60.524 23.3553 60.5154 23.3553H60.5369C60.5389 23.3718 60.5389 23.3886 60.5369 23.4051C66.6689 22.5256 73.9794 18.1864 81.7129 21.4359C84.8965 23.0628 86.6772 25.8921 85.4081 31.3599C85.4189 31.3339 85.557 30.9699 85.5549 30.9548L85.5311 30.9721C85.8916 29.6961 86.2218 28.6 86.2132 27.3088C87.0441 22.5884 83.4742 15.9075 78.3242 13.1021ZM71.0677 8.48347C72.1923 8.73693 74.2535 9.11387 74.9269 9.82659C73.1592 9.80709 72.2829 9.04021 72.311 9.05971C71.9721 8.95572 70.908 8.57445 71.0677 8.48347Z" fill="#FAD50A"/>
<path id="splash-1" d="M51.1311 11.826L50.3912 11.2115C52.1545 9.77127 59.0456 8.85277 59.7444 8.92392C58.7063 9.13316 57.6841 9.41413 56.6851 9.7648C54.8547 10.362 52.8382 11.108 51.1311 11.826ZM86.9215 21.7441C85.8397 13.6954 83.0833 6.62984 73.2627 4.0339C79.3359 5.5022 79.7924 6.25899 80.5843 6.78292C75.8677 2.42545 68.2691 0.90972 60.5883 2.21416C65.0669 0.767418 72.4275 0.944218 77.0317 3.79026C66.0492 -2.98634 52.849 -0.05621 44.7333 7.68201C46.2479 7.97524 47.5785 8.97567 48.8139 9.92866C58.0244 4.92221 77.0317 3.55094 83.3537 15.7976C82.9903 16.0261 82.7047 15.4095 82.4364 15.2327C82.3866 15.2176 82.2741 15.1076 82.22 15.0839C79.2169 12.0654 74.3964 11.1727 70.3332 10.3168C73.0442 11.3948 75.9001 11.7225 78.4402 13.1628C85.0673 16.9618 87.9601 24.6613 85.6666 30.9333L85.6904 30.9161C86.7107 27.9719 87.1293 24.8541 86.9215 21.7462V21.7441ZM64.5909 9.97394C60.3892 9.97394 55.0711 10.7631 51.4903 12.13L52.3298 12.8372C56.6072 11.2115 63.7969 10.7997 67.3149 10.666C71.125 10.5496 65.9843 9.98688 64.5909 9.97394ZM72.4081 9.13953C72.3388 9.10288 73.2886 9.89417 75.0303 9.90279C74.3488 9.19128 72.2934 8.82474 71.1597 8.56601C71.0039 8.65657 72.0705 9.03604 72.4102 9.13953H72.4081Z" fill="#F2940A"/>
</g>
<g id="f-rbmn-logotype">
<path id="Shape" fill-rule="evenodd" clip-rule="evenodd" d="M205.1 31.5999C205.1 33.3999 206.6 34.8999 208.5 34.8999C210.4 34.8999 211.9 33.3999 211.9 31.5999V20.7999H217.8V32.7999C217.8 36.7999 213.6 40.0999 208.4 40.0999C203.2 40.0999 199 36.7999 199 32.7999V20.7999H205V31.5999H205.1ZM231.3 39.3999H237.3V7.8999H231.3V39.3999ZM221.2 39.3999H227.2V7.8999H221.2V39.3999ZM111.4 14.4999H108.1V39.3999H101.7V9.3999H112.7C117.7 9.3999 121.7 13.3999 121.7 18.2999C121.7 22.3999 118.8 25.9999 114.8 26.8999L123.6 39.4999H116.1L109.7 29.6999V22.4999H111.2C113.6 22.4999 115.5 20.6999 115.5 18.5999C115.5 16.2999 113.7 14.4999 111.4 14.4999Z" fill="#D2003C"/>
<path id="Shape_2" fill-rule="evenodd" clip-rule="evenodd" d="M129.3 27.8999C129.2 25.8999 130.7 24.0999 132.8 23.9999C134.8 23.8999 136.6 25.3999 136.7 27.4999C136.7 27.5999 136.7 27.7999 136.7 27.8999H129.3ZM142.5 31.2999C142.5 30.8999 142.6 30.4999 142.6 29.9999C142.7 23.4999 138.4 19.8999 132.9 19.8999C127.4 19.8999 123 24.3999 123 29.8999C123 35.3999 127.4 39.8999 132.9 39.8999C137.1 39.8999 140.3 37.9999 142 35.0999L137.1 32.7999C136.4 34.1999 134.9 35.0999 133.3 35.0999C131 35.0999 129.2 33.3999 129.2 31.3999V31.1999C129.3 31.2999 142.5 31.2999 142.5 31.2999ZM156.1 34.7999C153.7 34.7999 151.7 32.5999 151.7 29.9999C151.7 27.2999 153.7 25.1999 156.1 25.1999C158.5 25.1999 160.5 27.3999 160.5 29.9999C160.5 32.6999 158.5 34.7999 156.1 34.7999ZM166.4 39.3999V7.8999H160.4V22.7999C158.8 21.1999 156.6 20.2999 154.4 20.2999C149.5 20.2999 145.4 24.6999 145.4 30.0999C145.4 35.4999 149.4 39.8999 154.4 39.8999C156.7 39.8999 158.9 38.8999 160.5 37.2999V39.3999H166.4ZM186.8 34.1999H181.1V14.4999H185.1C186.9 14.4999 188.3 16.0999 188.3 17.8999C188.3 19.6999 186.9 21.0999 185.1 21.0999H183V26.4999H186.8C188.9 26.4999 190.5 28.1999 190.5 30.2999V30.3999C190.4 32.4999 189.1 34.0999 186.8 34.1999ZM191.8 23.0999C193.5 21.5999 194.4 19.4999 194.4 17.2999C194.4 15.2999 193.6 13.3999 192.2 11.8999C190.8 10.2999 188.2 9.4999 184.8 9.4999H174.6V39.4999H187.9C193 39.3999 197.1 35.5999 197.1 30.8999C197 27.3999 195.8 24.9999 191.8 23.0999Z" fill="#D2003C"/>
</g>
</g>
</g>
</g>
</g>
<defs>
<linearGradient id="paint0_linear_0_1" x1="48.2946" y1="34.6744" x2="87.2682" y2="34.6744" gradientUnits="userSpaceOnUse">
<stop stop-color="#1885C8"/>
<stop offset="0.14" stop-color="#1881C3"/>
<stop offset="0.32" stop-color="#1A74B3"/>
<stop offset="0.52" stop-color="#1B6099"/>
<stop offset="0.73" stop-color="#1E4475"/>
<stop offset="0.96" stop-color="#212047"/>
<stop offset="1" stop-color="#22183D"/>
</linearGradient>
<linearGradient id="paint1_linear_0_1" x1="62.4641" y1="43.5782" x2="79.9742" y2="40.9153" gradientUnits="userSpaceOnUse">
<stop offset="0.24" stop-color="#52BCE8"/>
<stop offset="1" stop-color="#3F88B9"/>
</linearGradient>
<linearGradient id="paint2_linear_0_1" x1="50.0667" y1="43.9445" x2="69.0533" y2="43.9445" gradientUnits="userSpaceOnUse">
<stop offset="0.54" stop-color="#52BCE8"/>
<stop offset="1" stop-color="#49A4D3"/>
</linearGradient>
<linearGradient id="paint3_linear_0_1" x1="79.0206" y1="27.9437" x2="81.3683" y2="27.4376" gradientUnits="userSpaceOnUse">
<stop stop-color="#3A78AC"/>
<stop offset="0.29" stop-color="#34689E"/>
<stop offset="0.86" stop-color="#253E78"/>
<stop offset="1" stop-color="#21336E"/>
</linearGradient>
<linearGradient id="paint4_linear_0_1" x1="48.9083" y1="32.2948" x2="81.8903" y2="25.025" gradientUnits="userSpaceOnUse">
<stop stop-color="#52BCE8"/>
<stop offset="0.25" stop-color="#51B9E6"/>
<stop offset="0.41" stop-color="#4EB0DE"/>
<stop offset="0.56" stop-color="#48A1D0"/>
<stop offset="0.69" stop-color="#418CBD"/>
<stop offset="0.78" stop-color="#3977AB"/>
<stop offset="0.85" stop-color="#33669C"/>
<stop offset="0.98" stop-color="#243B75"/>
<stop offset="1" stop-color="#21336E"/>
</linearGradient>
<clipPath id="clip0_0_1">
<rect width="1440" height="2866" fill="white" transform="translate(-49 -2427)"/>
</clipPath>
</defs>
</svg>
